<svg width="87" height="30" viewBox="0 0 87 30" fill="none" xmlns="http://www.w3.org/2000/svg">
<g id="Group 3">
<path id="Vector" d="M7.55464 25.8194H6.11261C5.95765 25.8194 5.88018 25.8972 5.88018 26.0526L5.91339 29.546C5.91339 29.6066 5.88938 29.6647 5.84668 29.7076C5.80398 29.7504 5.74606 29.7745 5.68568 29.7745L1.12236 29.7316C0.967867 29.7307 0.815217 29.698 0.673831 29.6355C0.532445 29.573 0.405343 29.4821 0.300402 29.3683C0.195461 29.2545 0.11489 29.1204 0.0637156 28.9741C0.0125411 28.8278 -0.00815173 28.6726 0.00288649 28.518L1.91453 0.59492C1.92652 0.432952 1.99875 0.281562 2.11668 0.171186C2.23461 0.0608098 2.3895 -0.00036095 2.55018 1.60243e-06H11.3163C11.4652 -0.000309327 11.6087 0.0564988 11.7178 0.158956C11.827 0.261414 11.8937 0.401884 11.9045 0.552073L13.9585 29.5317C13.9611 29.5582 13.9581 29.585 13.9495 29.6103C13.9409 29.6356 13.927 29.6589 13.9087 29.6787C13.8904 29.6984 13.868 29.7142 13.8431 29.7249C13.8182 29.7357 13.7912 29.7412 13.764 29.7411L8.24247 29.7459C8.08435 29.7459 8.00053 29.6666 7.99104 29.5079L7.80132 26.0526C7.79183 25.8972 7.7096 25.8194 7.55464 25.8194ZM6.44938 6.62976C6.33238 11.0845 6.21854 15.4631 6.10786 19.7656C6.10342 19.9257 6.14643 20.0835 6.23146 20.219C6.31649 20.3546 6.4397 20.4618 6.58549 20.527C6.73128 20.5922 6.89308 20.6126 7.05041 20.5855C7.20774 20.5584 7.35351 20.485 7.46926 20.3748C8.09067 19.7846 7.35066 7.50548 7.27951 5.70645C7.27755 5.63533 7.25188 5.56721 7.20655 5.51284C7.16122 5.45847 7.09881 5.42094 7.02919 5.4062C6.95956 5.39147 6.88668 5.40038 6.82206 5.43148C6.75744 5.46257 6.70477 5.51409 6.67235 5.57794C6.53636 5.85715 6.46203 6.20777 6.44938 6.62976Z" fill="#0000F5"/>
<path id="Vector_2" d="M21.1406 24.3393C22.0608 24.4678 24.7694 23.8443 24.8026 25.2198C24.8342 26.5587 24.85 27.8723 24.85 29.1605C24.85 29.3158 24.7885 29.4647 24.6791 29.5745C24.5697 29.6842 24.4213 29.7459 24.2666 29.7459H15.6712C15.4624 29.7459 15.2621 29.6632 15.1144 29.5159C14.9668 29.3686 14.8838 29.1689 14.8838 28.9606V0.475934C14.8838 0.349709 14.9338 0.22866 15.0227 0.139405C15.1117 0.0501498 15.2323 0 15.3581 0H20.2772C20.3879 0 20.4941 0.0441284 20.5724 0.122673C20.6507 0.201217 20.6947 0.307746 20.6947 0.418825V23.8253C20.6947 24.1267 20.8433 24.298 21.1406 24.3393Z" fill="#0000F5"/>
<path id="Vector_3" d="M26.9942 29.684C25.9032 29.6317 25.8415 29.17 25.9031 28.1991C26.5008 18.9914 27.1333 9.78045 27.8006 0.566365C27.8125 0.411979 27.8817 0.267819 27.9943 0.162791C28.1069 0.0577625 28.2546 -0.000376921 28.4078 1.83904e-06H37.3209C37.4319 -0.00023519 37.5388 0.0419617 37.6199 0.117998C37.701 0.194034 37.7501 0.29819 37.7573 0.409298L39.8113 29.4223C39.8146 29.4636 39.8093 29.5052 39.7957 29.5443C39.7822 29.5835 39.7607 29.6194 39.7326 29.6498C39.7045 29.6803 39.6705 29.7045 39.6326 29.721C39.5947 29.7376 39.5538 29.746 39.5124 29.7459H34.0573C33.8739 29.7459 33.7806 29.6539 33.7775 29.4699L33.7206 26.105C33.7174 25.9146 33.6209 25.8194 33.4312 25.8194H32.0888C31.8579 25.8194 31.7425 25.9352 31.7425 26.1669L31.7709 29.4936C31.7709 29.566 31.7426 29.6356 31.692 29.6872C31.6415 29.7388 31.5727 29.7684 31.5006 29.7697C30.0048 29.7887 28.5026 29.7602 26.9942 29.684ZM32.3022 6.62976C32.1884 11.075 32.0793 15.4663 31.9749 19.8036C31.9719 19.9825 32.0234 20.1675 32.1211 20.3281C32.2187 20.4887 32.3566 20.6153 32.512 20.6868C32.6674 20.7584 32.8309 20.7707 32.9756 20.7218C33.1204 20.6728 33.2376 20.5655 33.3079 20.4176C33.3458 20.3319 33.3885 20.2669 33.4359 20.2224C33.5687 20.0955 33.632 19.9385 33.6257 19.7513L33.1466 5.73024C33.144 5.65583 33.1167 5.58442 33.0689 5.52742C33.0211 5.47042 32.9558 5.43113 32.8831 5.41579C32.8105 5.40045 32.7349 5.40996 32.6683 5.4428C32.6017 5.47565 32.5479 5.52994 32.5157 5.59699C32.386 5.87304 32.3149 6.21729 32.3022 6.62976Z" fill="#0000F5"/>
<path id="Vector_4" d="M46.5423 6.11101L46.566 11.5271C46.566 11.6887 46.63 11.8437 46.7439 11.9579C46.8578 12.0722 47.0122 12.1363 47.1732 12.1363H50.0905C50.2515 12.1363 50.406 12.2005 50.5199 12.3147C50.6337 12.429 50.6977 12.584 50.6977 12.7455V16.9766C50.6977 17.1357 50.6357 17.2885 50.5249 17.4024C50.4141 17.5162 50.2633 17.5821 50.1047 17.5858L47.14 17.6619C46.9815 17.6656 46.8307 17.7315 46.7199 17.8453C46.609 17.9592 46.547 18.112 46.5471 18.2711V29.1367C46.5471 29.2983 46.4831 29.4532 46.3692 29.5675C46.2554 29.6817 46.1009 29.7459 45.9399 29.7459H41.3386C41.1776 29.7459 41.0232 29.6817 40.9093 29.5675C40.7954 29.4532 40.7314 29.2983 40.7314 29.1367L40.7457 0.60921C40.7457 0.447641 40.8096 0.292664 40.9235 0.178417C41.0374 0.0641709 41.1918 0 41.3529 0H50.0905C50.2515 0 50.406 0.0641709 50.5199 0.178417C50.6337 0.292664 50.6977 0.447641 50.6977 0.60921V4.84977C50.6977 5.00971 50.635 5.16322 50.5232 5.2772C50.4114 5.39117 50.2594 5.45645 50.1 5.45895L47.1448 5.49704C47.065 5.49766 46.9862 5.51404 46.9128 5.54523C46.8393 5.57642 46.7728 5.62181 46.7168 5.67882C46.6609 5.73583 46.6167 5.80337 46.5867 5.87752C46.5568 5.95167 46.5417 6.03101 46.5423 6.11101Z" fill="#0000F5"/>
<path id="Vector_5" d="M57.908 24.3631L61.053 24.4059C61.1704 24.4072 61.2826 24.4549 61.3652 24.5386C61.4478 24.6224 61.4941 24.7354 61.4941 24.8533L61.4799 29.2985C61.4799 29.3573 61.4684 29.4155 61.446 29.4697C61.4236 29.524 61.3907 29.5733 61.3493 29.6149C61.3079 29.6564 61.2587 29.6894 61.2046 29.7119C61.1505 29.7343 61.0926 29.7459 61.034 29.7459H52.0924C51.9741 29.7459 51.8607 29.6988 51.7771 29.6149C51.6935 29.531 51.6465 29.4172 51.6465 29.2985V0.447379C51.6465 0.328727 51.6935 0.214939 51.7771 0.131039C51.8607 0.0471391 51.9741 0 52.0924 0H61.0435C61.1618 0 61.2752 0.0471391 61.3588 0.131039C61.4424 0.214939 61.4894 0.328727 61.4894 0.447379V4.99731C61.4894 5.11433 61.4438 5.22671 61.3622 5.31034C61.2806 5.39397 61.1696 5.4422 61.053 5.44469L57.8938 5.51133C57.7772 5.51382 57.6662 5.56205 57.5846 5.64568C57.503 5.72931 57.4573 5.84169 57.4574 5.95871V11.6652C57.4573 11.7814 57.5023 11.8931 57.5829 11.9766C57.6635 12.0601 57.7732 12.1088 57.889 12.1125L61.0577 12.2125C61.1735 12.2162 61.2833 12.2649 61.3639 12.3484C61.4444 12.4319 61.4895 12.5436 61.4894 12.6598V17.1717C61.4895 17.2871 61.4451 17.3982 61.3656 17.4815C61.286 17.5649 61.1774 17.6142 61.0625 17.6191L57.8843 17.7476C57.7694 17.7525 57.6607 17.8018 57.5812 17.8852C57.5016 17.9686 57.4573 18.0795 57.4574 18.195L57.4669 23.9157C57.4668 24.0335 57.5132 24.1466 57.5958 24.2304C57.6783 24.3142 57.7906 24.3618 57.908 24.3631Z" fill="#0000F5"/>
<path id="Vector_6" d="M77.2995 10.7276C77.0212 10.6704 76.8899 10.7831 76.9057 11.0655C77.2663 17.205 77.6489 23.3192 78.0537 29.408C78.0695 29.6333 77.9636 29.7459 77.7359 29.7459H73.0682C72.8593 29.7459 72.6591 29.6632 72.5114 29.5159C72.3637 29.3686 72.2808 29.1689 72.2808 28.9606V0.475934C72.2808 0.349709 72.3307 0.22866 72.4197 0.139405C72.5087 0.0501498 72.6293 0 72.7551 0H78.6846C78.8427 0 78.9328 0.0777313 78.9549 0.233203L81.6778 18.7709C81.6915 18.8655 81.7334 18.9534 81.798 19.0225C81.8626 19.0916 81.9466 19.1383 82.0383 19.1564C82.1236 19.1754 82.266 18.9232 82.2613 18.8089C81.8976 12.5964 81.5371 6.38704 81.1797 0.180857C81.1784 0.158195 81.1817 0.135512 81.1895 0.114191C81.1973 0.0928688 81.2093 0.0733681 81.2249 0.0568774C81.2404 0.0403867 81.2592 0.0272318 81.2799 0.0182717C81.3007 0.0093115 81.3231 0.0047269 81.3457 0.00476399L86.6158 0C86.8435 0 86.9573 0.11421 86.9573 0.342659L87.0001 29.546C87.0001 29.599 86.9791 29.6499 86.9417 29.6874C86.9043 29.7249 86.8537 29.7459 86.8008 29.7459H80.3686C80.2199 29.7459 80.1361 29.6729 80.1172 29.527L77.5272 10.9655C77.5082 10.8323 77.4323 10.7529 77.2995 10.7276Z" fill="#0000F5"/>
<path id="Vector_7" d="M66.4746 24.0358C65.1227 23.9882 62.49 24.0595 62.5707 22.37C62.928 15.2722 63.2743 8.22522 63.6095 1.22898C63.6167 1.07265 63.6549 0.919308 63.7218 0.777913C63.7886 0.636518 63.8828 0.509885 63.9989 0.405363C64.115 0.300841 64.2507 0.220514 64.398 0.169081C64.5453 0.117647 64.7013 0.0961195 64.857 0.105755C66.5236 0.21046 68.225 0.381805 69.9611 0.619772C70.9905 0.757793 71.2372 1.28133 71.0996 2.26175C70.1287 9.04858 69.1357 15.8291 68.1206 22.6032C67.9546 23.6883 67.6415 24.0786 66.4746 24.0358Z" fill="#0000F5"/>
<path id="Vector_8" d="M65.1939 29.755C66.4881 29.755 67.5372 28.7023 67.5372 27.4039C67.5372 26.1054 66.4881 25.0527 65.1939 25.0527C63.8997 25.0527 62.8506 26.1054 62.8506 27.4039C62.8506 28.7023 63.8997 29.755 65.1939 29.755Z" fill="#0000F5"/>
</g>
</svg>
