<svg width="187" height="64" viewBox="0 0 187 64" fill="none" xmlns="http://www.w3.org/2000/svg">
<path d="M16.2381 55.497H13.1386C12.8055 55.497 12.639 55.664 12.639 55.9982L12.7104 63.507C12.7104 63.6372 12.6588 63.7621 12.567 63.8542C12.4752 63.9463 12.3507 63.998 12.2209 63.998L2.41243 63.9059C2.08036 63.9039 1.75225 63.8336 1.44835 63.6993C1.14445 63.565 0.871254 63.3695 0.645692 63.125C0.420129 62.8804 0.246948 62.592 0.136952 62.2777C0.0269562 61.9633 -0.0175215 61.6296 0.00620429 61.2973L4.11514 1.27874C4.14091 0.930599 4.29615 0.605196 4.54964 0.367951C4.80312 0.130706 5.13606 -0.000775835 5.48143 3.4443e-06H24.3235C24.6435 -0.000664876 24.952 0.12144 25.1866 0.341665C25.4212 0.561889 25.5646 0.86382 25.5878 1.18664L30.0027 63.4762C30.0084 63.5332 30.0018 63.5908 29.9834 63.6452C29.965 63.6996 29.9351 63.7496 29.8957 63.792C29.8563 63.8345 29.8083 63.8684 29.7547 63.8915C29.7011 63.9146 29.6432 63.9265 29.5847 63.9263L17.7166 63.9366C17.3767 63.9366 17.1965 63.7661 17.1762 63.4251L16.7684 55.9982C16.748 55.664 16.5712 55.497 16.2381 55.497ZM13.8625 14.2502C13.611 23.8253 13.3663 33.2368 13.1284 42.4846C13.1188 42.8287 13.2113 43.1679 13.3941 43.4593C13.5768 43.7506 13.8417 43.981 14.155 44.1212C14.4684 44.2615 14.8162 44.3052 15.1543 44.247C15.4925 44.1887 15.8058 44.0311 16.0546 43.794C17.3903 42.5255 15.7997 16.1325 15.6468 12.2656C15.6426 12.1127 15.5874 11.9663 15.4899 11.8494C15.3925 11.7326 15.2584 11.6519 15.1087 11.6202C14.9591 11.5886 14.8024 11.6077 14.6635 11.6745C14.5246 11.7414 14.4114 11.8521 14.3417 11.9894C14.0494 12.5895 13.8897 13.3431 13.8625 14.2502Z" fill="#FF73C6"/>
<path d="M45.4394 52.3155C47.4174 52.5917 53.2393 51.2516 53.3107 54.208C53.3786 57.086 53.4127 59.9095 53.4127 62.6783C53.4127 63.012 53.2805 63.3321 53.0453 63.5681C52.8101 63.804 52.4912 63.9366 52.1586 63.9366H33.6835C33.2346 63.9366 32.8041 63.7587 32.4867 63.4422C32.1693 63.1257 31.991 62.6963 31.991 62.2486V1.02299C31.991 0.751673 32.0984 0.491487 32.2896 0.29964C32.4808 0.107793 32.7401 0 33.0106 0H43.5838C43.8217 0 44.0499 0.0948506 44.2182 0.263676C44.3865 0.432501 44.481 0.661477 44.481 0.900232V51.2106C44.481 51.8585 44.8005 52.2268 45.4394 52.3155Z" fill="#FF73C6"/>
<path d="M58.0212 63.8036C55.6761 63.6911 55.5435 62.6988 55.676 60.6119C56.9607 40.8205 58.3202 21.0224 59.7544 1.21736C59.7801 0.885519 59.9289 0.575658 60.1709 0.349907C60.4129 0.124156 60.7304 -0.000810163 61.0595 3.95288e-06H80.2177C80.4562 -0.000505524 80.686 0.0901936 80.8603 0.253627C81.0346 0.417061 81.1402 0.640937 81.1557 0.879756L85.5706 63.241C85.5776 63.3298 85.5663 63.4191 85.5372 63.5033C85.508 63.5875 85.4619 63.6647 85.4015 63.7301C85.3411 63.7955 85.2679 63.8476 85.1864 63.8831C85.105 63.9187 85.017 63.9369 84.9282 63.9366H73.2029C72.8086 63.9366 72.6082 63.7388 72.6014 63.3432L72.479 56.1107C72.4722 55.7015 72.2648 55.497 71.857 55.497H68.9716C68.4754 55.497 68.2273 55.7459 68.2273 56.2437L68.2884 63.3944C68.2884 63.55 68.2275 63.6994 68.1188 63.8104C68.0101 63.9214 67.8624 63.985 67.7073 63.9877C64.4922 64.0286 61.2635 63.9673 58.0212 63.8036ZM69.4304 14.2502C69.1857 23.8049 68.9512 33.2436 68.7269 42.5664C68.7203 42.9509 68.8311 43.3486 69.041 43.6938C69.2509 44.039 69.5473 44.3109 69.8813 44.4648C70.2153 44.6186 70.5668 44.6451 70.8779 44.5399C71.1889 44.4347 71.4408 44.2041 71.592 43.8861C71.6735 43.702 71.7653 43.5621 71.8672 43.4666C72.1527 43.1938 72.2887 42.8563 72.2751 42.4539L71.2453 12.3167C71.2397 12.1568 71.1809 12.0033 71.0783 11.8808C70.9757 11.7583 70.8351 11.6738 70.679 11.6408C70.5229 11.6079 70.3603 11.6283 70.2172 11.6989C70.074 11.7695 69.9585 11.8862 69.8892 12.0303C69.6105 12.6237 69.4576 13.3636 69.4304 14.2502Z" fill="#FF73C6"/>
<path d="M100.039 13.1352L100.09 24.7767C100.09 25.124 100.227 25.4571 100.472 25.7026C100.717 25.9482 101.049 26.0861 101.395 26.0861H107.665C108.011 26.0861 108.343 26.2241 108.588 26.4696C108.833 26.7152 108.97 27.0483 108.97 27.3956V36.4899C108.971 36.8319 108.837 37.1604 108.599 37.4051C108.361 37.6498 108.037 37.7913 107.696 37.7993L101.323 37.963C100.983 37.971 100.659 38.1125 100.42 38.3572C100.182 38.6019 100.049 38.9304 100.049 39.2724V62.6271C100.049 62.9744 99.9115 63.3075 99.6667 63.5531C99.422 63.7987 99.09 63.9366 98.7438 63.9366H88.8538C88.5077 63.9366 88.1757 63.7987 87.931 63.5531C87.6862 63.3075 87.5487 62.9744 87.5487 62.6271L87.5793 1.30945C87.5793 0.962171 87.7168 0.629059 87.9615 0.383495C88.2063 0.137931 88.5382 0 88.8844 0H107.665C108.011 0 108.343 0.137931 108.588 0.383495C108.833 0.629059 108.97 0.962171 108.97 1.30945V10.4242C108.97 10.768 108.836 11.098 108.595 11.3429C108.355 11.5879 108.028 11.7282 107.686 11.7336L101.334 11.8155C101.162 11.8168 100.993 11.852 100.835 11.9191C100.677 11.9861 100.534 12.0837 100.414 12.2062C100.294 12.3287 100.199 12.4739 100.134 12.6333C100.07 12.7927 100.037 12.9632 100.039 13.1352Z" fill="#FF73C6"/>
<path d="M124.468 52.3666L131.228 52.4587C131.481 52.4614 131.722 52.5639 131.899 52.7439C132.077 52.924 132.176 53.167 132.176 53.4203L132.146 62.975C132.146 63.1013 132.121 63.2263 132.073 63.343C132.025 63.4597 131.954 63.5656 131.865 63.6549C131.776 63.7442 131.67 63.8151 131.554 63.8634C131.438 63.9117 131.313 63.9366 131.187 63.9366H111.968C111.714 63.9366 111.47 63.8353 111.29 63.6549C111.111 63.4746 111.01 63.23 111.01 62.975V0.961609C111.01 0.706575 111.111 0.461994 111.29 0.281658C111.47 0.101322 111.714 0 111.968 0H131.208C131.462 0 131.706 0.101322 131.885 0.281658C132.065 0.461994 132.166 0.706575 132.166 0.961609V10.7413C132.166 10.9929 132.068 11.2344 131.893 11.4142C131.717 11.5939 131.479 11.6976 131.228 11.703L124.438 11.8462C124.187 11.8515 123.948 11.9552 123.773 12.135C123.598 12.3147 123.5 12.5563 123.5 12.8078V25.0734C123.499 25.3232 123.596 25.5632 123.769 25.7427C123.943 25.9222 124.179 26.027 124.427 26.035L131.238 26.2498C131.487 26.2577 131.723 26.3626 131.896 26.542C132.069 26.7215 132.166 26.9616 132.166 27.2114V36.9093C132.166 37.1574 132.071 37.396 131.9 37.5752C131.729 37.7544 131.496 37.8604 131.248 37.8709L124.417 38.1471C124.17 38.1577 123.937 38.2637 123.766 38.4429C123.595 38.6221 123.499 38.8606 123.5 39.1087L123.52 51.405C123.52 51.6583 123.619 51.9014 123.797 52.0814C123.975 52.2615 124.216 52.3639 124.468 52.3666Z" fill="#FF73C6"/>
<path d="M166.149 23.0581C165.551 22.9353 165.269 23.1774 165.303 23.7844C166.078 36.9809 166.9 50.1228 167.77 63.2102C167.804 63.6945 167.577 63.9366 167.087 63.9366H157.054C156.606 63.9366 156.175 63.7587 155.858 63.4422C155.54 63.1257 155.362 62.6963 155.362 62.2486V1.02299C155.362 0.751673 155.469 0.491487 155.661 0.29964C155.852 0.107793 156.111 0 156.382 0H169.126C169.466 0 169.66 0.167078 169.708 0.501253L175.56 40.3465C175.59 40.55 175.68 40.739 175.819 40.8874C175.957 41.0359 176.138 41.1364 176.335 41.1752C176.518 41.2161 176.824 40.6739 176.814 40.4284C176.033 27.075 175.258 13.7285 174.49 0.388739C174.487 0.340028 174.494 0.291274 174.511 0.245444C174.527 0.199614 174.553 0.157699 174.587 0.122254C174.62 0.0868083 174.66 0.0585327 174.705 0.0392735C174.75 0.0200144 174.798 0.0101601 174.846 0.0102398L186.174 0C186.663 0 186.908 0.245487 186.908 0.736519L187 63.5069C187 63.6209 186.955 63.7302 186.875 63.8108C186.794 63.8913 186.685 63.9366 186.572 63.9366H172.746C172.427 63.9366 172.246 63.7797 172.206 63.466L166.639 23.5696C166.598 23.2831 166.435 23.1126 166.149 23.0581Z" fill="#FF73C6"/>
<path d="M142.882 51.6608C139.976 51.5585 134.317 51.7119 134.491 48.0803C135.259 32.8242 136.003 17.6772 136.724 2.63932C136.739 2.3033 136.821 1.9737 136.965 1.66978C137.109 1.36586 137.311 1.09368 137.561 0.869013C137.81 0.644351 138.102 0.471694 138.419 0.361142C138.735 0.25059 139.071 0.204317 139.405 0.225027C142.987 0.450084 146.644 0.818376 150.376 1.32987C152.589 1.62653 153.119 2.75183 152.823 4.85918C150.736 19.447 148.602 34.0211 146.42 48.5816C146.063 50.914 145.39 51.7528 142.882 51.6608Z" fill="#FF73C6"/>
<path d="M140.129 63.9572C142.911 63.9572 145.166 61.6946 145.166 58.9036C145.166 56.1127 142.911 53.8501 140.129 53.8501C137.347 53.8501 135.092 56.1127 135.092 58.9036C135.092 61.6946 137.347 63.9572 140.129 63.9572Z" fill="#FF73C6"/>
</svg>
